<?xml version="1.0" encoding="utf-8" standalone="no"?>
<!DOCTYPE svg PUBLIC "-//W3C//DTD SVG 1.1//EN"
  "http://www.w3.org/Graphics/SVG/1.1/DTD/svg11.dtd">
<!-- Created with matplotlib (http://matplotlib.org/) -->
<svg height="89.866667pt" version="1.1" viewBox="0 0 242.64 89.866667" width="242.64pt" xmlns="http://www.w3.org/2000/svg" xmlns:xlink="http://www.w3.org/1999/xlink">
 <defs>
  <style type="text/css">
*{stroke-linecap:butt;stroke-linejoin:round;}
  </style>
 </defs>
 <g id="figure_1">
  <g id="patch_1">
   <path d="M 0 89.866667 
L 242.64 89.866667 
L 242.64 0 
L 0 0 
z
" style="fill:#ffffff;"/>
  </g>
  <g id="axes_1">
   <g id="patch_2">
    <path clip-path="url(#p85de0cff83)" d="M 85.823214 44.852928 
C 85.823214 44.287467 85.810877 43.722073 85.786212 43.15715 
C 85.761547 42.592226 85.72456 42.027909 85.675277 41.464599 
L 46.946496 44.852928 
L 85.823214 44.852928 
z
" style="fill:#0d0887;"/>
   </g>
   <g id="patch_3">
    <path clip-path="url(#p85de0cff83)" d="M 74.436487 17.362937 
C 74.036645 16.963095 73.628128 16.572025 73.211226 16.190005 
C 72.794324 15.807984 72.369137 15.435105 71.935969 15.071634 
L 46.946496 44.852928 
L 74.436487 17.362937 
z
" style="fill:#0d0887;"/>
   </g>
   <g id="patch_4">
    <path clip-path="url(#p85de0cff83)" d="M 46.946496 5.97621 
C 46.381034 5.97621 45.81564 5.988546 45.250717 6.013212 
C 44.685794 6.037877 44.121476 6.074864 43.558166 6.124147 
L 46.946496 44.852928 
L 46.946496 5.97621 
z
" style="fill:#0d0887;"/>
   </g>
   <g id="patch_5">
    <path clip-path="url(#p85de0cff83)" d="M 19.456504 17.362937 
C 19.056663 17.762778 18.665592 18.171296 18.283572 18.588198 
C 17.901552 19.0051 17.528673 19.430287 17.165201 19.863455 
L 46.946496 44.852928 
L 19.456504 17.362937 
z
" style="fill:#0d0887;"/>
   </g>
   <g id="patch_6">
    <path clip-path="url(#p85de0cff83)" d="M 11.029091 59.730404 
C 11.245484 60.252823 11.473248 60.770457 11.712223 61.282939 
C 11.951197 61.795421 12.201324 62.302629 12.462425 62.804199 
L 46.946496 44.852928 
L 11.029091 59.730404 
z
" style="fill:#0d0887;"/>
   </g>
   <g id="patch_7">
    <path clip-path="url(#p85de0cff83)" d="M 32.069019 80.770333 
C 32.591438 80.986726 33.118515 81.191695 33.649875 81.385094 
C 34.181235 81.578493 34.716751 81.760276 35.256041 81.930314 
L 46.946496 44.852928 
L 32.069019 80.770333 
z
" style="fill:#0d0887;"/>
   </g>
   <g id="patch_8">
    <path clip-path="url(#p85de0cff83)" d="M 61.823972 80.770333 
C 62.34639 80.55394 62.864025 80.326175 63.376507 80.087201 
C 63.888989 79.848227 64.396196 79.5981 64.897766 79.336999 
L 46.946496 44.852928 
L 61.823972 80.770333 
z
" style="fill:#0d0887;"/>
   </g>
   <g id="patch_9">
    <path clip-path="url(#p85de0cff83)" d="M 82.8639 59.730404 
C 83.080293 59.207986 83.285262 58.680909 83.478661 58.149549 
C 83.67206 57.618189 83.853844 57.082673 84.023881 56.543383 
L 46.946496 44.852928 
L 82.8639 59.730404 
z
" style="fill:#0d0887;"/>
   </g>
   <g id="patch_10">
    <path clip-path="url(#p85de0cff83)" d="M 80.309995 38.216516 
C 80.213468 37.731244 80.106366 37.248136 79.988764 36.767537 
C 79.871162 36.286937 79.743089 35.808961 79.604635 35.333949 
L 46.946496 44.852928 
L 80.309995 38.216516 
z
" style="fill:#fa9c3c;"/>
   </g>
   <g id="patch_11">
    <path clip-path="url(#p85de0cff83)" d="M 65.8454 16.568719 
C 65.434006 16.293835 65.016664 16.027959 64.593672 15.771281 
C 64.17068 15.514603 63.742138 15.267184 63.308352 15.029201 
L 46.946496 44.852928 
L 65.8454 16.568719 
z
" style="fill:#fa9c3c;"/>
   </g>
   <g id="patch_12">
    <path clip-path="url(#p85de0cff83)" d="M 40.310083 11.489429 
C 39.824811 11.585956 39.341703 11.693058 38.861104 11.81066 
C 38.380505 11.928262 37.902528 12.056335 37.427516 12.194789 
L 46.946496 44.852928 
L 40.310083 11.489429 
z
" style="fill:#fa9c3c;"/>
   </g>
   <g id="patch_13">
    <path clip-path="url(#p85de0cff83)" d="M 18.662287 25.954024 
C 18.387402 26.365417 18.121526 26.782759 17.864848 27.205751 
C 17.60817 27.628744 17.360752 28.057286 17.122769 28.491071 
L 46.946496 44.852928 
L 18.662287 25.954024 
z
" style="fill:#fa9c3c;"/>
   </g>
   <g id="patch_14">
    <path clip-path="url(#p85de0cff83)" d="M 18.662287 63.751832 
C 18.937171 64.163226 19.220998 64.568573 19.513566 64.967585 
C 19.806133 65.366596 20.107371 65.759177 20.417065 66.145048 
L 46.946496 44.852928 
L 18.662287 63.751832 
z
" style="fill:#fa9c3c;"/>
   </g>
   <g id="patch_15">
    <path clip-path="url(#p85de0cff83)" d="M 40.310083 78.216427 
C 40.795355 78.312954 41.282674 78.398882 41.771695 78.474149 
C 42.260715 78.549416 42.751319 78.614006 43.243157 78.667871 
L 46.946496 44.852928 
L 40.310083 78.216427 
z
" style="fill:#fa9c3c;"/>
   </g>
   <g id="patch_16">
    <path clip-path="url(#p85de0cff83)" d="M 65.8454 73.137137 
C 66.256793 72.862253 66.66214 72.578426 67.061152 72.285858 
C 67.460164 71.993291 67.852745 71.692053 68.238615 71.382359 
L 46.946496 44.852928 
L 65.8454 73.137137 
z
" style="fill:#fa9c3c;"/>
   </g>
   <g id="patch_17">
    <path clip-path="url(#p85de0cff83)" d="M 80.309995 51.489341 
C 80.406521 51.004069 80.492449 50.516749 80.567716 50.027729 
C 80.642984 49.538709 80.707573 49.048105 80.761438 48.556267 
L 46.946496 44.852928 
L 80.309995 51.489341 
z
" style="fill:#fa9c3c;"/>
   </g>
   <g id="patch_18">
    <path clip-path="url(#p85de0cff83)" d="M 231.610909 44.852928 
C 231.610909 40.317965 230.817405 35.817779 229.266356 31.556307 
C 227.715307 27.294836 225.430503 23.337439 222.515485 19.863455 
L 192.73419 44.852928 
L 231.610909 44.852928 
z
" style="fill:#0d0887;stroke:#ffffff;stroke-linejoin:miter;"/>
   </g>
   <g id="patch_19">
    <path clip-path="url(#p85de0cff83)" d="M 220.224182 17.362937 
C 217.017478 14.156233 213.274274 11.535214 209.164202 9.618655 
C 205.054129 7.702097 200.640226 6.519395 196.12252 6.124147 
L 192.73419 44.852928 
L 220.224182 17.362937 
z
" style="fill:#0d0887;stroke:#ffffff;stroke-linejoin:miter;"/>
   </g>
   <g id="patch_20">
    <path clip-path="url(#p85de0cff83)" d="M 192.73419 5.97621 
C 188.199227 5.97621 183.699041 6.769714 179.43757 8.320763 
C 175.176098 9.871811 171.218701 12.156616 167.744717 15.071634 
L 192.73419 44.852928 
L 192.73419 5.97621 
z
" style="fill:#0d0887;stroke:#ffffff;stroke-linejoin:miter;"/>
   </g>
   <g id="patch_21">
    <path clip-path="url(#p85de0cff83)" d="M 165.244199 17.362937 
C 162.037496 20.56964 159.416476 24.312844 157.499918 28.422917 
C 155.583359 32.53299 154.400658 36.946892 154.005409 41.464599 
L 192.73419 44.852928 
L 165.244199 17.362937 
z
" style="fill:#0d0887;stroke:#ffffff;stroke-linejoin:miter;"/>
   </g>
   <g id="patch_22">
    <path clip-path="url(#p85de0cff83)" d="M 156.816786 59.730404 
C 158.552241 63.920164 161.00749 67.774133 164.071267 71.117659 
C 167.135044 74.461184 170.760358 77.242986 174.78292 79.336999 
L 192.73419 44.852928 
L 156.816786 59.730404 
z
" style="fill:#0d0887;stroke:#ffffff;stroke-linejoin:miter;"/>
   </g>
   <g id="patch_23">
    <path clip-path="url(#p85de0cff83)" d="M 177.856714 80.770333 
C 182.046474 82.505788 186.507765 83.494832 191.038412 83.692645 
C 195.569059 83.890457 200.099574 83.294004 204.424645 81.930314 
L 192.73419 44.852928 
L 177.856714 80.770333 
z
" style="fill:#0d0887;stroke:#ffffff;stroke-linejoin:miter;"/>
   </g>
   <g id="patch_24">
    <path clip-path="url(#p85de0cff83)" d="M 207.611667 80.770333 
C 211.801426 79.034877 215.655395 76.579629 218.998921 73.515852 
C 222.342447 70.452075 225.124248 66.826761 227.218261 62.804199 
L 192.73419 44.852928 
L 207.611667 80.770333 
z
" style="fill:#0d0887;stroke:#ffffff;stroke-linejoin:miter;"/>
   </g>
   <g id="patch_25">
    <path clip-path="url(#p85de0cff83)" d="M 226.406757 58.800562 
C 228.033747 54.872662 228.960976 50.690202 229.146425 46.442721 
C 229.331874 42.195239 228.772699 37.947881 227.494239 33.893127 
L 192.73419 44.852928 
L 226.406757 58.800562 
z
" style="fill:#0d0887;stroke:#ffffff;stroke-linejoin:miter;"/>
   </g>
   <g id="patch_26">
    <path clip-path="url(#p85de0cff83)" d="M 226.09769 38.216516 
C 225.323553 34.324668 223.874378 30.598121 221.815838 27.205751 
C 219.757297 23.813382 217.120964 20.80722 214.02631 18.323497 
L 192.73419 44.852928 
L 226.09769 38.216516 
z
" style="fill:#fa9c3c;stroke:#ffffff;stroke-linejoin:miter;"/>
   </g>
   <g id="patch_27">
    <path clip-path="url(#p85de0cff83)" d="M 211.633095 16.568719 
C 208.333746 14.364165 204.673958 12.75382 200.819582 11.81066 
C 196.965206 10.8675 192.97536 10.605992 189.030852 11.037986 
L 192.73419 44.852928 
L 211.633095 16.568719 
z
" style="fill:#fa9c3c;stroke:#ffffff;stroke-linejoin:miter;"/>
   </g>
   <g id="patch_28">
    <path clip-path="url(#p85de0cff83)" d="M 186.097778 11.489429 
C 182.205931 12.263565 178.479383 13.71274 175.087014 15.771281 
C 171.694644 17.829821 168.688482 20.466155 166.20476 23.560809 
L 192.73419 44.852928 
L 186.097778 11.489429 
z
" style="fill:#fa9c3c;stroke:#ffffff;stroke-linejoin:miter;"/>
   </g>
   <g id="patch_29">
    <path clip-path="url(#p85de0cff83)" d="M 164.449982 25.954024 
C 162.245427 29.253373 160.635082 32.913161 159.691922 36.767537 
C 158.748762 40.621912 158.487254 44.611759 158.919248 48.556267 
L 192.73419 44.852928 
L 164.449982 25.954024 
z
" style="fill:#fa9c3c;stroke:#ffffff;stroke-linejoin:miter;"/>
   </g>
   <g id="patch_30">
    <path clip-path="url(#p85de0cff83)" d="M 164.449982 63.751832 
C 166.654536 67.051181 169.419487 69.939487 172.619534 72.285858 
C 175.819581 74.63223 179.405644 76.40068 183.215211 77.511068 
L 192.73419 44.852928 
L 164.449982 63.751832 
z
" style="fill:#fa9c3c;stroke:#ffffff;stroke-linejoin:miter;"/>
   </g>
   <g id="patch_31">
    <path clip-path="url(#p85de0cff83)" d="M 186.097778 78.216427 
C 189.989625 78.990564 193.987081 79.077789 197.908991 78.474149 
C 201.830902 77.870509 205.617114 76.585263 209.096047 74.676655 
L 192.73419 44.852928 
L 186.097778 78.216427 
z
" style="fill:#fa9c3c;stroke:#ffffff;stroke-linejoin:miter;"/>
   </g>
   <g id="patch_32">
    <path clip-path="url(#p85de0cff83)" d="M 211.633095 73.137137 
C 214.932443 70.932583 217.820749 68.167632 220.16712 64.967585 
C 222.513492 61.767538 224.281942 58.181475 225.39233 54.371908 
L 192.73419 44.852928 
L 211.633095 73.137137 
z
" style="fill:#fa9c3c;stroke:#ffffff;stroke-linejoin:miter;"/>
   </g>
   <g id="patch_33">
    <path clip-path="url(#p85de0cff83)" d="M 223.714583 51.015311 
C 224.433424 47.401453 224.514418 43.68953 223.953895 40.047756 
C 223.393373 36.405982 222.19993 32.890213 220.427651 29.659775 
L 192.73419 44.852928 
L 223.714583 51.015311 
z
" style="fill:#fa9c3c;stroke:#ffffff;stroke-linejoin:miter;"/>
   </g>
   <g id="text_1">
    <!-- (a) -->
    <defs>
     <path d="M 31 75.875 
Q 24.46875 64.65625 21.28125 53.65625 
Q 18.109375 42.671875 18.109375 31.390625 
Q 18.109375 20.125 21.3125 9.0625 
Q 24.515625 -2 31 -13.1875 
L 23.1875 -13.1875 
Q 15.875 -1.703125 12.234375 9.375 
Q 8.59375 20.453125 8.59375 31.390625 
Q 8.59375 42.28125 12.203125 53.3125 
Q 15.828125 64.359375 23.1875 75.875 
z
" id="DejaVuSans-28"/>
     <path d="M 34.28125 27.484375 
Q 23.390625 27.484375 19.1875 25 
Q 14.984375 22.515625 14.984375 16.5 
Q 14.984375 11.71875 18.140625 8.90625 
Q 21.296875 6.109375 26.703125 6.109375 
Q 34.1875 6.109375 38.703125 11.40625 
Q 43.21875 16.703125 43.21875 25.484375 
L 43.21875 27.484375 
z
M 52.203125 31.203125 
L 52.203125 0 
L 43.21875 0 
L 43.21875 8.296875 
Q 40.140625 3.328125 35.546875 0.953125 
Q 30.953125 -1.421875 24.3125 -1.421875 
Q 15.921875 -1.421875 10.953125 3.296875 
Q 6 8.015625 6 15.921875 
Q 6 25.140625 12.171875 29.828125 
Q 18.359375 34.515625 30.609375 34.515625 
L 43.21875 34.515625 
L 43.21875 35.40625 
Q 43.21875 41.609375 39.140625 45 
Q 35.0625 48.390625 27.6875 48.390625 
Q 23 48.390625 18.546875 47.265625 
Q 14.109375 46.140625 10.015625 43.890625 
L 10.015625 52.203125 
Q 14.9375 54.109375 19.578125 55.046875 
Q 24.21875 56 28.609375 56 
Q 40.484375 56 46.34375 49.84375 
Q 52.203125 43.703125 52.203125 31.203125 
z
" id="DejaVuSans-61"/>
     <path d="M 8.015625 75.875 
L 15.828125 75.875 
Q 23.140625 64.359375 26.78125 53.3125 
Q 30.421875 42.28125 30.421875 31.390625 
Q 30.421875 20.453125 26.78125 9.375 
Q 23.140625 -1.703125 15.828125 -13.1875 
L 8.015625 -13.1875 
Q 14.5 -2 17.703125 9.0625 
Q 20.90625 20.125 20.90625 31.390625 
Q 20.90625 42.671875 17.703125 53.65625 
Q 14.5 64.65625 8.015625 75.875 
z
" id="DejaVuSans-29"/>
    </defs>
    <g transform="translate(3.210187 83.729647)scale(0.1 -0.1)">
     <use xlink:href="#DejaVuSans-28"/>
     <use x="39.013672" xlink:href="#DejaVuSans-61"/>
     <use x="100.292969" xlink:href="#DejaVuSans-29"/>
    </g>
   </g>
   <g id="text_2">
    <!-- (b) -->
    <defs>
     <path d="M 48.6875 27.296875 
Q 48.6875 37.203125 44.609375 42.84375 
Q 40.53125 48.484375 33.40625 48.484375 
Q 26.265625 48.484375 22.1875 42.84375 
Q 18.109375 37.203125 18.109375 27.296875 
Q 18.109375 17.390625 22.1875 11.75 
Q 26.265625 6.109375 33.40625 6.109375 
Q 40.53125 6.109375 44.609375 11.75 
Q 48.6875 17.390625 48.6875 27.296875 
z
M 18.109375 46.390625 
Q 20.953125 51.265625 25.265625 53.625 
Q 29.59375 56 35.59375 56 
Q 45.5625 56 51.78125 48.09375 
Q 58.015625 40.1875 58.015625 27.296875 
Q 58.015625 14.40625 51.78125 6.484375 
Q 45.5625 -1.421875 35.59375 -1.421875 
Q 29.59375 -1.421875 25.265625 0.953125 
Q 20.953125 3.328125 18.109375 8.203125 
L 18.109375 0 
L 9.078125 0 
L 9.078125 75.984375 
L 18.109375 75.984375 
z
" id="DejaVuSans-62"/>
    </defs>
    <g transform="translate(148.997882 83.729647)scale(0.1 -0.1)">
     <use xlink:href="#DejaVuSans-28"/>
     <use x="39.013672" xlink:href="#DejaVuSans-62"/>
     <use x="102.490234" xlink:href="#DejaVuSans-29"/>
    </g>
   </g>
   <g id="text_3">
    <!-- $40\degree$ -->
    <defs>
     <path d="M 37.796875 64.3125 
L 12.890625 25.390625 
L 37.796875 25.390625 
z
M 35.203125 72.90625 
L 47.609375 72.90625 
L 47.609375 25.390625 
L 58.015625 25.390625 
L 58.015625 17.1875 
L 47.609375 17.1875 
L 47.609375 0 
L 37.796875 0 
L 37.796875 17.1875 
L 4.890625 17.1875 
L 4.890625 26.703125 
z
" id="DejaVuSans-34"/>
     <path d="M 31.78125 66.40625 
Q 24.171875 66.40625 20.328125 58.90625 
Q 16.5 51.421875 16.5 36.375 
Q 16.5 21.390625 20.328125 13.890625 
Q 24.171875 6.390625 31.78125 6.390625 
Q 39.453125 6.390625 43.28125 13.890625 
Q 47.125 21.390625 47.125 36.375 
Q 47.125 51.421875 43.28125 58.90625 
Q 39.453125 66.40625 31.78125 66.40625 
z
M 31.78125 74.21875 
Q 44.046875 74.21875 50.515625 64.515625 
Q 56.984375 54.828125 56.984375 36.375 
Q 56.984375 17.96875 50.515625 8.265625 
Q 44.046875 -1.421875 31.78125 -1.421875 
Q 19.53125 -1.421875 13.0625 8.265625 
Q 6.59375 17.96875 6.59375 36.375 
Q 6.59375 54.828125 13.0625 64.515625 
Q 19.53125 74.21875 31.78125 74.21875 
z
" id="DejaVuSans-30"/>
     <path d="M 25 67.921875 
Q 21.09375 67.921875 18.40625 65.203125 
Q 15.71875 62.5 15.71875 58.59375 
Q 15.71875 54.734375 18.40625 52.078125 
Q 21.09375 49.421875 25 49.421875 
Q 28.90625 49.421875 31.59375 52.078125 
Q 34.28125 54.734375 34.28125 58.59375 
Q 34.28125 62.453125 31.5625 65.1875 
Q 28.859375 67.921875 25 67.921875 
z
M 25 74.21875 
Q 28.125 74.21875 31 73.015625 
Q 33.890625 71.828125 35.984375 69.578125 
Q 38.234375 67.390625 39.359375 64.59375 
Q 40.484375 61.8125 40.484375 58.59375 
Q 40.484375 52.15625 35.96875 47.6875 
Q 31.453125 43.21875 24.90625 43.21875 
Q 18.3125 43.21875 13.90625 47.609375 
Q 9.515625 52 9.515625 58.59375 
Q 9.515625 65.140625 14 69.671875 
Q 18.5 74.21875 25 74.21875 
z
" id="DejaVuSans-b0"/>
    </defs>
    <g transform="translate(217.03214 12.779635)scale(0.1 -0.1)">
     <use transform="translate(0 0.78125)" xlink:href="#DejaVuSans-34"/>
     <use transform="translate(63.623047 0.78125)" xlink:href="#DejaVuSans-30"/>
     <use transform="translate(127.246094 0.78125)" xlink:href="#DejaVuSans-b0"/>
    </g>
   </g>
   <g id="text_4">
    <!-- $5\degree$ -->
    <defs>
     <path d="M 10.796875 72.90625 
L 49.515625 72.90625 
L 49.515625 64.59375 
L 19.828125 64.59375 
L 19.828125 46.734375 
Q 21.96875 47.46875 24.109375 47.828125 
Q 26.265625 48.1875 28.421875 48.1875 
Q 40.625 48.1875 47.75 41.5 
Q 54.890625 34.8125 54.890625 23.390625 
Q 54.890625 11.625 47.5625 5.09375 
Q 40.234375 -1.421875 26.90625 -1.421875 
Q 22.3125 -1.421875 17.546875 -0.640625 
Q 12.796875 0.140625 7.71875 1.703125 
L 7.71875 11.625 
Q 12.109375 9.234375 16.796875 8.0625 
Q 21.484375 6.890625 26.703125 6.890625 
Q 35.15625 6.890625 40.078125 11.328125 
Q 45.015625 15.765625 45.015625 23.390625 
Q 45.015625 31 40.078125 35.4375 
Q 35.15625 39.890625 26.703125 39.890625 
Q 22.75 39.890625 18.8125 39.015625 
Q 14.890625 38.140625 10.796875 36.28125 
z
" id="DejaVuSans-35"/>
    </defs>
    <g transform="translate(10.985531 15.695389)scale(0.1 -0.1)">
     <use transform="translate(0 0.78125)" xlink:href="#DejaVuSans-35"/>
     <use transform="translate(63.623047 0.78125)" xlink:href="#DejaVuSans-b0"/>
    </g>
   </g>
   <g id="patch_34">
    <path d="M 90.463034 27.878909 
Q 87.536647 30.727757 84.610259 33.576605 
L 85.133422 34.114007 
Q 83.534482 34.623878 81.935542 35.133749 
Q 82.488157 33.549074 83.040771 31.964399 
L 83.563934 32.501801 
Q 86.490321 29.652953 89.416709 26.804105 
L 90.463034 27.878909 
z
" style="fill:#fa9c3c;stroke:#fa9c3c;stroke-linecap:round;"/>
   </g>
   <g id="text_5">
    <!-- $1^{st}$ rotation -->
    <defs>
     <path d="M 12.40625 8.296875 
L 28.515625 8.296875 
L 28.515625 63.921875 
L 10.984375 60.40625 
L 10.984375 69.390625 
L 28.421875 72.90625 
L 38.28125 72.90625 
L 38.28125 8.296875 
L 54.390625 8.296875 
L 54.390625 0 
L 12.40625 0 
z
" id="DejaVuSans-31"/>
     <path d="M 50 53.078125 
L 48.296875 44.578125 
Q 44.734375 46.53125 40.765625 47.5 
Q 36.8125 48.484375 32.625 48.484375 
Q 25.53125 48.484375 21.453125 46.0625 
Q 17.390625 43.65625 17.390625 39.5 
Q 17.390625 34.671875 26.859375 32.078125 
Q 27.59375 31.890625 27.9375 31.78125 
L 30.8125 30.90625 
Q 39.796875 28.421875 42.796875 25.6875 
Q 45.796875 22.953125 45.796875 18.21875 
Q 45.796875 9.515625 38.890625 4.046875 
Q 31.984375 -1.421875 20.796875 -1.421875 
Q 16.453125 -1.421875 11.671875 -0.578125 
Q 6.890625 0.25 1.125 2 
L 2.875 11.28125 
Q 7.8125 8.734375 12.59375 7.421875 
Q 17.390625 6.109375 21.78125 6.109375 
Q 28.375 6.109375 32.5 8.9375 
Q 36.625 11.765625 36.625 16.109375 
Q 36.625 20.796875 25.78125 23.6875 
L 24.859375 23.921875 
L 21.78125 24.703125 
Q 14.9375 26.515625 11.765625 29.46875 
Q 8.59375 32.421875 8.59375 37.015625 
Q 8.59375 45.75 15.15625 50.875 
Q 21.734375 56 33.015625 56 
Q 37.453125 56 41.671875 55.265625 
Q 45.90625 54.546875 50 53.078125 
z
" id="DejaVuSans-Oblique-73"/>
     <path d="M 42.28125 54.6875 
L 40.921875 47.703125 
L 23 47.703125 
L 17.1875 18.015625 
Q 16.890625 16.359375 16.75 15.234375 
Q 16.609375 14.109375 16.609375 13.484375 
Q 16.609375 10.359375 18.484375 8.9375 
Q 20.359375 7.515625 24.515625 7.515625 
L 33.59375 7.515625 
L 32.078125 0 
L 23.484375 0 
Q 15.484375 0 11.546875 3.125 
Q 7.625 6.25 7.625 12.59375 
Q 7.625 13.71875 7.765625 15.0625 
Q 7.90625 16.40625 8.203125 18.015625 
L 14.015625 47.703125 
L 6.390625 47.703125 
L 7.8125 54.6875 
L 15.28125 54.6875 
L 18.3125 70.21875 
L 27.296875 70.21875 
L 24.3125 54.6875 
z
" id="DejaVuSans-Oblique-74"/>
     <path id="DejaVuSans-20"/>
     <path d="M 41.109375 46.296875 
Q 39.59375 47.171875 37.8125 47.578125 
Q 36.03125 48 33.890625 48 
Q 26.265625 48 22.1875 43.046875 
Q 18.109375 38.09375 18.109375 28.8125 
L 18.109375 0 
L 9.078125 0 
L 9.078125 54.6875 
L 18.109375 54.6875 
L 18.109375 46.1875 
Q 20.953125 51.171875 25.484375 53.578125 
Q 30.03125 56 36.53125 56 
Q 37.453125 56 38.578125 55.875 
Q 39.703125 55.765625 41.0625 55.515625 
z
" id="DejaVuSans-72"/>
     <path d="M 30.609375 48.390625 
Q 23.390625 48.390625 19.1875 42.75 
Q 14.984375 37.109375 14.984375 27.296875 
Q 14.984375 17.484375 19.15625 11.84375 
Q 23.34375 6.203125 30.609375 6.203125 
Q 37.796875 6.203125 41.984375 11.859375 
Q 46.1875 17.53125 46.1875 27.296875 
Q 46.1875 37.015625 41.984375 42.703125 
Q 37.796875 48.390625 30.609375 48.390625 
z
M 30.609375 56 
Q 42.328125 56 49.015625 48.375 
Q 55.71875 40.765625 55.71875 27.296875 
Q 55.71875 13.875 49.015625 6.21875 
Q 42.328125 -1.421875 30.609375 -1.421875 
Q 18.84375 -1.421875 12.171875 6.21875 
Q 5.515625 13.875 5.515625 27.296875 
Q 5.515625 40.765625 12.171875 48.375 
Q 18.84375 56 30.609375 56 
z
" id="DejaVuSans-6f"/>
     <path d="M 18.3125 70.21875 
L 18.3125 54.6875 
L 36.8125 54.6875 
L 36.8125 47.703125 
L 18.3125 47.703125 
L 18.3125 18.015625 
Q 18.3125 11.328125 20.140625 9.421875 
Q 21.96875 7.515625 27.59375 7.515625 
L 36.8125 7.515625 
L 36.8125 0 
L 27.59375 0 
Q 17.1875 0 13.234375 3.875 
Q 9.28125 7.765625 9.28125 18.015625 
L 9.28125 47.703125 
L 2.6875 47.703125 
L 2.6875 54.6875 
L 9.28125 54.6875 
L 9.28125 70.21875 
z
" id="DejaVuSans-74"/>
     <path d="M 9.421875 54.6875 
L 18.40625 54.6875 
L 18.40625 0 
L 9.421875 0 
z
M 9.421875 75.984375 
L 18.40625 75.984375 
L 18.40625 64.59375 
L 9.421875 64.59375 
z
" id="DejaVuSans-69"/>
     <path d="M 54.890625 33.015625 
L 54.890625 0 
L 45.90625 0 
L 45.90625 32.71875 
Q 45.90625 40.484375 42.875 44.328125 
Q 39.84375 48.1875 33.796875 48.1875 
Q 26.515625 48.1875 22.3125 43.546875 
Q 18.109375 38.921875 18.109375 30.90625 
L 18.109375 0 
L 9.078125 0 
L 9.078125 54.6875 
L 18.109375 54.6875 
L 18.109375 46.1875 
Q 21.34375 51.125 25.703125 53.5625 
Q 30.078125 56 35.796875 56 
Q 45.21875 56 50.046875 50.171875 
Q 54.890625 44.34375 54.890625 33.015625 
z
" id="DejaVuSans-6e"/>
    </defs>
    <g transform="translate(91.940343 23.314354)scale(0.1 -0.1)">
     <use transform="translate(0 0.565625)" xlink:href="#DejaVuSans-31"/>
     <use transform="translate(64.580078 38.846875)scale(0.7)" xlink:href="#DejaVuSans-Oblique-73"/>
     <use transform="translate(101.049805 38.846875)scale(0.7)" xlink:href="#DejaVuSans-Oblique-74"/>
     <use transform="translate(131.230469 0.565625)" xlink:href="#DejaVuSans-20"/>
     <use transform="translate(163.017578 0.565625)" xlink:href="#DejaVuSans-72"/>
     <use transform="translate(204.130859 0.565625)" xlink:href="#DejaVuSans-6f"/>
     <use transform="translate(265.3125 0.565625)" xlink:href="#DejaVuSans-74"/>
     <use transform="translate(304.521484 0.565625)" xlink:href="#DejaVuSans-61"/>
     <use transform="translate(365.800781 0.565625)" xlink:href="#DejaVuSans-74"/>
     <use transform="translate(405.009766 0.565625)" xlink:href="#DejaVuSans-69"/>
     <use transform="translate(432.792969 0.565625)" xlink:href="#DejaVuSans-6f"/>
     <use transform="translate(493.974609 0.565625)" xlink:href="#DejaVuSans-6e"/>
    </g>
   </g>
   <g id="patch_35">
    <path d="M 89.489572 62.484476 
Q 88.12137 56.673662 86.753168 50.862848 
L 86.023132 51.034741 
Q 86.409132 49.401711 86.795132 47.768682 
Q 87.869204 49.057926 88.943277 50.34717 
L 88.213241 50.519063 
Q 89.581443 56.329877 90.949645 62.140691 
L 89.489572 62.484476 
z
" style="fill:#0d0887;stroke:#0d0887;stroke-linecap:round;"/>
   </g>
   <g id="text_6">
    <!-- $2^{nd}$ rotation -->
    <defs>
     <path d="M 19.1875 8.296875 
L 53.609375 8.296875 
L 53.609375 0 
L 7.328125 0 
L 7.328125 8.296875 
Q 12.9375 14.109375 22.625 23.890625 
Q 32.328125 33.6875 34.8125 36.53125 
Q 39.546875 41.84375 41.421875 45.53125 
Q 43.3125 49.21875 43.3125 52.78125 
Q 43.3125 58.59375 39.234375 62.25 
Q 35.15625 65.921875 28.609375 65.921875 
Q 23.96875 65.921875 18.8125 64.3125 
Q 13.671875 62.703125 7.8125 59.421875 
L 7.8125 69.390625 
Q 13.765625 71.78125 18.9375 73 
Q 24.125 74.21875 28.421875 74.21875 
Q 39.75 74.21875 46.484375 68.546875 
Q 53.21875 62.890625 53.21875 53.421875 
Q 53.21875 48.921875 51.53125 44.890625 
Q 49.859375 40.875 45.40625 35.40625 
Q 44.1875 33.984375 37.640625 27.21875 
Q 31.109375 20.453125 19.1875 8.296875 
z
" id="DejaVuSans-32"/>
     <path d="M 55.71875 33.015625 
L 49.3125 0 
L 40.28125 0 
L 46.6875 32.671875 
Q 47.125 34.96875 47.359375 36.71875 
Q 47.609375 38.484375 47.609375 39.5 
Q 47.609375 43.609375 45.015625 45.890625 
Q 42.4375 48.1875 37.796875 48.1875 
Q 30.5625 48.1875 25.34375 43.375 
Q 20.125 38.578125 18.5 30.328125 
L 12.5 0 
L 3.515625 0 
L 14.109375 54.6875 
L 23.09375 54.6875 
L 21.296875 46.09375 
Q 25.046875 50.828125 30.3125 53.40625 
Q 35.59375 56 41.40625 56 
Q 48.640625 56 52.609375 52.09375 
Q 56.59375 48.1875 56.59375 41.109375 
Q 56.59375 39.359375 56.375 37.359375 
Q 56.15625 35.359375 55.71875 33.015625 
z
" id="DejaVuSans-Oblique-6e"/>
     <path d="M 41.796875 8.203125 
Q 38.1875 3.46875 33.25 1.015625 
Q 28.328125 -1.421875 22.3125 -1.421875 
Q 14.109375 -1.421875 9.34375 4.171875 
Q 4.59375 9.765625 4.59375 19.484375 
Q 4.59375 27.59375 7.46875 34.9375 
Q 10.359375 42.28125 15.828125 48.09375 
Q 19.4375 51.953125 23.96875 53.96875 
Q 28.515625 56 33.5 56 
Q 38.765625 56 42.796875 53.453125 
Q 46.828125 50.921875 49.03125 46.1875 
L 54.890625 75.984375 
L 63.921875 75.984375 
L 49.125 0 
L 40.09375 0 
z
M 13.921875 21.09375 
Q 13.921875 14.015625 17.109375 10.0625 
Q 20.3125 6.109375 25.984375 6.109375 
Q 30.171875 6.109375 33.765625 8.125 
Q 37.359375 10.15625 40.09375 14.109375 
Q 42.96875 18.21875 44.625 23.578125 
Q 46.296875 28.953125 46.296875 34.1875 
Q 46.296875 40.96875 43.09375 44.765625 
Q 39.890625 48.578125 34.28125 48.578125 
Q 30.03125 48.578125 26.359375 46.578125 
Q 22.703125 44.578125 20.125 40.828125 
Q 17.28125 36.765625 15.59375 31.390625 
Q 13.921875 26.03125 13.921875 21.09375 
z
" id="DejaVuSans-Oblique-64"/>
    </defs>
    <g transform="translate(90.690343 71.910252)scale(0.1 -0.1)">
     <use transform="translate(0 0.529687)" xlink:href="#DejaVuSans-32"/>
     <use transform="translate(64.580078 38.810937)scale(0.7)" xlink:href="#DejaVuSans-Oblique-6e"/>
     <use transform="translate(108.945312 38.810937)scale(0.7)" xlink:href="#DejaVuSans-Oblique-64"/>
     <use transform="translate(156.113281 0.529687)" xlink:href="#DejaVuSans-20"/>
     <use transform="translate(187.900391 0.529687)" xlink:href="#DejaVuSans-72"/>
     <use transform="translate(229.013672 0.529687)" xlink:href="#DejaVuSans-6f"/>
     <use transform="translate(290.195312 0.529687)" xlink:href="#DejaVuSans-74"/>
     <use transform="translate(329.404297 0.529687)" xlink:href="#DejaVuSans-61"/>
     <use transform="translate(390.683594 0.529687)" xlink:href="#DejaVuSans-74"/>
     <use transform="translate(429.892578 0.529687)" xlink:href="#DejaVuSans-69"/>
     <use transform="translate(457.675781 0.529687)" xlink:href="#DejaVuSans-6f"/>
     <use transform="translate(518.857422 0.529687)" xlink:href="#DejaVuSans-6e"/>
    </g>
   </g>
  </g>
 </g>
 <defs>
  <clipPath id="p85de0cff83">
   <rect height="89.866667" width="242.64" x="0" y="0"/>
  </clipPath>
 </defs>
</svg>
